<?xml version="1.0" encoding="UTF-8" standalone="no"?>
<svg
   xmlns:dc="http://purl.org/dc/elements/1.1/"
   xmlns:cc="http://creativecommons.org/ns#"
   xmlns:rdf="http://www.w3.org/1999/02/22-rdf-syntax-ns#"
   xmlns:svg="http://www.w3.org/2000/svg"
   xmlns="http://www.w3.org/2000/svg"
   id="svg8"
   version="1.1"
   viewBox="0 0 358.32129 358.32129"
   height="358.32129mm"
   width="358.32129mm">
  <defs
     id="defs2" />
  <metadata
     id="metadata5">
    <rdf:RDF>
      <cc:Work
         rdf:about="">
        <dc:format>image/svg+xml</dc:format>
        <dc:type
           rdf:resource="http://purl.org/dc/dcmitype/StillImage" />
        <dc:title></dc:title>
      </cc:Work>
    </rdf:RDF>
  </metadata>
  <g
     transform="translate(110.36891,27.303538)"
     id="layer1">
    <path
       id="path839"
       d="M 68.791741,-27.303538 A 179.1607,179.1607 0 0 0 -110.36891,151.8571 179.1607,179.1607 0 0 0 68.791741,331.01774 179.1607,179.1607 0 0 0 247.95238,151.8571 179.1607,179.1607 0 0 0 68.791741,-27.303538 Z m 3.358968,68.078015 c 25.753628,0.1324 49.714841,9.155178 70.402941,26.538949 l 0.79375,0.666625 -15.93236,15.934428 -15.93288,15.934944 -0.73587,-0.674378 C 107.03096,95.771334 97.897651,90.794119 91.397079,88.630468 83.093229,85.866599 73.496422,84.825582 64.596132,85.723152 58.758339,86.311874 51.663921,88.123865 46.378639,90.376615 24.472221,99.713816 9.6743134,119.72366 7.2001524,143.35323 c -0.4506198,4.30374 -0.1799987,13.04652 0.5286507,17.06769 1.8636297,10.57499 5.8049719,19.80381 12.0209709,28.14867 2.657231,3.56728 9.257048,10.19162 12.734107,12.78113 9.588021,7.14058 21.001926,11.56185 32.811434,12.71033 4.315611,0.41969 13.278993,0.15667 17.727083,-0.52038 22.970002,-3.49631 38.870472,-15.91808 45.254602,-35.35339 0.62219,-1.89413 1.21521,-4.00888 1.31775,-4.69946 l 0.18655,-1.25522 -29.1698,-0.0677 -29.16979,-0.0672 -0.0021,-21.03437 -0.0021,-21.03438 50.81602,-0.0667 50.81654,-0.0667 0.30179,1.38958 c 0.70058,3.22418 1.58581,9.04305 1.88154,12.36979 0.2906,3.26909 0.20311,15.58448 -0.12402,17.4625 -0.0634,0.36381 -0.1917,1.55442 -0.28526,2.64583 -0.29909,3.48898 -1.20708,9.26533 -2.15387,13.70149 -3.11719,14.60553 -9.0993,28.31714 -17.39222,39.86526 -3.84547,5.35494 -10.37553,12.47975 -15.45591,16.86358 -15.36017,13.25417 -34.65458,21.57552 -55.760421,24.04917 -4.23236,0.49604 -16.489918,0.89717 -18.917708,0.6191 h -10e-4 c -0.50932,-0.0583 -2.414323,-0.23403 -4.233333,-0.39069 -28.968996,-2.49489 -56.5327821,-17.33668 -74.82954,-40.29211 -9.430922,-11.8322 -16.062234,-24.92356 -20.125904,-39.73143 -4.10098,-14.9438 -4.835324,-32.81133 -1.984375,-48.28645 6.355141,-34.496164 28.329636,-63.419863 59.699715,-78.579702 14.08825,-6.808261 28.57995,-10.301446 44.648437,-10.762133 1.275064,-0.03656 2.546115,-0.05147 3.812686,-0.04496 z"
       style="fill:#ffffff;fill-opacity:1;stroke:none;stroke-width:11.76296234;stroke-linecap:round;stroke-miterlimit:4;stroke-dasharray:none;stroke-opacity:1" />
  </g>
</svg>
