<?xml version="1.0" encoding="UTF-8" standalone="no"?>
<svg
   xmlns:dc="http://purl.org/dc/elements/1.1/"
   xmlns:cc="http://creativecommons.org/ns#"
   xmlns:rdf="http://www.w3.org/1999/02/22-rdf-syntax-ns#"
   xmlns:svg="http://www.w3.org/2000/svg"
   xmlns="http://www.w3.org/2000/svg"
   id="svg8"
   version="1.1"
   viewBox="0 0 134.09946 134.28393"
   height="134.28394mm"
   width="134.09946mm">
  <defs
     id="defs2" />
  <metadata
     id="metadata5">
    <rdf:RDF>
      <cc:Work
         rdf:about="">
        <dc:format>image/svg+xml</dc:format>
        <dc:type
           rdf:resource="http://purl.org/dc/dcmitype/StillImage" />
        <dc:title></dc:title>
      </cc:Work>
    </rdf:RDF>
  </metadata>
  <g
     transform="translate(-0.26605,-0.25978934)"
     id="layer1">
    <g
       transform="translate(383.08378,-0.03285487)"
       id="layer1-0">
      <path
         id="path4540-0"
         d="m -321.8231,134.44198 c -13.4917,-1.08785 -26.54931,-6.5045 -37.3951,-15.5125 -2.07053,-1.71969 -6.41988,-6.06902 -8.13957,-8.13956 -8.26185,-9.94744 -13.21775,-21.045149 -15.13588,-33.893699 -0.30675,-2.0548 -0.32408,-2.56031 -0.32408,-9.453811 0,-6.89351 0.0173,-7.39902 0.32408,-9.45382 1.91813,-12.84856 6.87403,-23.946289 15.13588,-33.893708 1.71969,-2.070549 6.06904,-6.419882 8.13957,-8.139576 10.93492,-9.0820112 23.72035,-14.3607533 37.60519,-15.52609954 2.16938,-0.182083 9.31526,-0.182083 11.48464,0 13.88486,1.16534624 26.6703,6.44408834 37.60522,15.52609954 2.07053,1.719694 6.41987,6.069027 8.13956,8.139576 9.10932,10.967789 14.44918,23.942258 15.52867,37.730588 0.1822,2.32742 0.1822,8.90645 0,11.23387 -1.08068,13.803391 -6.40941,26.750805 -15.52867,37.73058 -1.71969,2.07054 -6.06903,6.41987 -8.13956,8.13956 -10.96779,9.10931 -23.94226,14.44919 -37.7306,15.52867 -2.1134,0.16545 -9.44391,0.15521 -11.56935,-0.0161 z m 10.1541,-2.50443 c 7.13757,-0.44585 13.63909,-1.89394 20.16817,-4.49209 2.0072,-0.79875 6.88369,-3.22874 8.75353,-4.36197 5.01176,-3.0374 8.45259,-5.73785 12.61623,-9.90149 5.35826,-5.35825 9.04137,-10.48108 12.33089,-17.150945 8.88248,-18.010274 8.88248,-39.167015 0,-57.177314 -3.28952,-6.66987 -6.97263,-11.792695 -12.33089,-17.150952 -5.36942,-5.369413 -10.23449,-8.875652 -16.95798,-12.2215662 -3.2081,-1.596499 -4.9108,-2.305051 -8.19332,-3.409521 -9.80998,-3.3007621 -20.98258,-4.0993371 -31.85259,-2.276686 -16.35261,2.74196 -31.04065,11.8721412 -40.94609,25.4523642 -6.54871,8.978211 -10.71564,19.80164 -11.93588,31.00308 -0.50569,4.64198 -0.41438,11.36872 0.21872,16.113821 3.36908,25.251239 21.50183,46.269559 45.93026,53.239379 6.87805,1.96243 14.8046,2.79578 22.19895,2.33389 z m -7.70311,-2.47898 c -27.17567,-1.48677 -50.24239,-20.78158 -56.64251,-47.380249 -1.30488,-5.42306 -1.79085,-10.176781 -1.64655,-16.106501 0.11877,-4.88076 0.64774,-8.96081 1.71594,-13.23534 3.78834,-15.159679 12.97329,-28.230883 25.91328,-36.877524 8.15098,-5.446577 17.53223,-8.7860522 27.85871,-9.9169872 3.13315,-0.343128 9.78515,-0.344128 12.88521,-0.002 8.06076,0.889774 15.25924,3.030469 22.12314,6.5790012 14.28131,7.383244 25.18282,20.219921 30.28889,35.66559 5.02699,15.2065 3.94263,31.753561 -3.03336,46.288705 -6.70313,13.966605 -18.58225,25.106175 -32.71193,30.675365 -8.45299,3.33175 -17.62348,4.80922 -26.75082,4.30988 z m -32.09207,-31.959195 c 1.62474,-0.79982 2.03292,-3.01431 0.76773,-4.165147 -0.53735,-0.48875 -1.06732,-0.69635 -3.12956,-1.22589 -1.70243,-0.43715 -2.01365,-0.56168 -2.36191,-0.945057 -0.34933,-0.38458 -0.392,-0.52242 -0.33053,-1.06778 0.095,-0.8427 0.47705,-1.3152 1.30326,-1.61178 1.71569,-0.61586 3.58031,0.21595 3.91664,1.74723 0.0742,0.33774 0.15301,0.39083 0.58049,0.39083 h 0.49466 l -0.0976,-0.52037 c -0.14212,-0.75752 -0.41363,-1.20994 -1.05619,-1.75995 -0.71691,-0.61364 -1.60817,-0.87483 -2.89532,-0.84848 -0.81578,0.0166 -1.145,0.0959 -1.73561,0.41733 -1.0353,0.56349 -1.45396,1.24498 -1.45699,2.37179 -0.004,1.452557 0.65705,2.071407 2.75974,2.583817 3.21374,0.783197 3.75053,1.112327 3.75053,2.299547 0,1.20492 -1.08106,1.95774 -2.80113,1.95062 -1.80014,-0.007 -2.82737,-0.69431 -3.05593,-2.04339 -0.0928,-0.54783 -0.14042,-0.60314 -0.55363,-0.64325 -0.43904,-0.0426 -0.45208,-0.0283 -0.45208,0.4977 0,0.76901 0.61082,1.91904 1.21888,2.29483 0.92675,0.57277 1.44018,0.68424 2.98281,0.64761 1.22294,-0.029 1.58531,-0.0914 2.15176,-0.37021 z m 39.79518,0.0758 c 1.04791,-0.48902 1.98333,-1.61497 2.22791,-2.68169 0.053,-0.23109 0.1291,-0.53045 0.16915,-0.66527 0.0596,-0.20057 -0.0161,-0.2451 -0.41689,-0.2451 -0.47417,0 -0.49691,0.0249 -0.71796,0.78524 -0.46025,1.58321 -2.03987,2.61944 -3.60409,2.3643 -0.82031,-0.13379 -1.85695,-0.71661 -2.29415,-1.28981 -1.14121,-1.49619 -1.21673,-4.438147 -0.15511,-6.042374 1.13673,-1.71773 3.83402,-2.02659 5.25845,-0.60216 0.28948,0.28947 0.58872,0.74391 0.66501,1.0099 0.12378,0.4316 0.19082,0.48359 0.62364,0.48359 0.43686,0 0.48003,-0.0345 0.43534,-0.34932 -0.13766,-0.96929 -1.07914,-2.04158 -2.2542,-2.56735 -0.4694,-0.21003 -0.93718,-0.28591 -1.77499,-0.28791 -1.00314,-0.003 -1.24677,0.051 -2.06086,0.45179 -1.65544,0.81497 -2.47724,2.20596 -2.58327,4.372517 -0.0779,1.590787 0.16643,2.632597 0.8685,3.703987 0.84684,1.2923 2.01955,1.87411 3.7928,1.88167 0.88725,0.005 1.26619,-0.0633 1.82072,-0.32201 z m 9.41577,0.11512 c 0.87732,-0.36656 1.45593,-0.91083 1.84071,-1.7314 0.36432,-0.77693 0.36874,-0.8252 0.41511,-4.531807 l 0.0469,-3.746507 h -0.49174 -0.49175 l -0.0488,3.676477 c -0.0537,4.053517 -0.13856,4.510907 -0.96632,5.207407 -0.57149,0.48088 -1.78987,0.71014 -2.7496,0.51739 -0.98304,-0.19741 -1.54327,-0.60961 -1.90973,-1.40515 -0.2731,-0.59287 -0.30005,-0.93066 -0.34451,-4.319647 l -0.0482,-3.676477 h -0.40815 -0.40815 v 3.786017 c 0,4.068637 0.0329,4.293297 0.77074,5.260637 0.18803,0.24652 0.67116,0.61231 1.07358,0.81285 0.62224,0.31006 0.91684,0.36462 1.96921,0.36462 0.79428,0 1.4213,-0.0767 1.75068,-0.21441 z m 9.91205,0.0582 c 0.36081,-0.0996 0.81804,-0.41186 1.2845,-0.87725 l 0.72426,-0.72259 0.0812,0.40532 c 0.0445,0.22293 0.0811,0.58652 0.0811,0.80798 0,0.33616 0.0578,0.40267 0.35014,0.40267 h 0.35015 v -2.59469 -2.594687 l -2.13588,0.0386 -2.13586,0.0388 -0.0443,0.38515 -0.0442,0.38517 h 1.76002 c 2.02003,0 1.967,-0.0476 1.54202,1.383477 -0.42728,1.43879 -1.68687,2.32816 -3.28343,2.31835 -1.04361,-0.006 -1.7536,-0.27282 -2.45834,-0.92246 -0.93956,-0.86605 -1.24578,-1.72014 -1.24751,-3.479657 -0.002,-1.662907 0.26454,-2.480487 1.08696,-3.338617 1.67379,-1.74645 4.79508,-1.33482 5.65047,0.74517 0.23508,0.5716 0.30443,0.63166 0.73013,0.63213 0.4422,5.3e-4 0.46484,-0.0225 0.37802,-0.38463 -0.26816,-1.11861 -1.50657,-2.393 -2.64001,-2.71675 -1.02706,-0.29335 -2.62046,-0.20457 -3.4794,0.19388 -2.1802,1.01136 -3.24518,3.653657 -2.59169,6.430084 0.3557,1.51127 1.53843,2.94585 2.79605,3.39147 0.70093,0.24838 2.46694,0.28818 3.24591,0.0732 z m -55.54365,-1.52783 0.59179,-1.54397 2.32509,0.0384 2.32508,0.0384 0.57441,1.4706 0.57441,1.4706 0.52172,0.0435 c 0.28694,0.0239 0.52171,0.0192 0.52171,-0.0105 0,-0.0297 -0.87496,-2.28669 -1.94439,-5.015497 l -1.94439,-4.961467 -0.57663,-0.0431 c -0.31714,-0.0238 -0.57661,-0.0178 -0.57661,0.0131 0,0.031 -0.90945,2.30341 -2.02098,5.050097 l -2.02096,4.993927 h 0.52897 0.52898 z m 0.98877,-2.48267 c -0.008,-0.296947 1.8862,-4.929984 1.97742,-4.836494 0.12371,0.1268 1.80696,4.604257 1.80696,4.806534 0,0.15902 -3.78008,0.18895 -3.78438,0.03 z m 8.4392,-0.168957 0.0371,-4.195597 2.87116,4.189947 2.87116,4.189917 0.52521,0.006 0.52522,0.006 v -5.042037 -5.042047 h -0.42018 -0.42017 v 4.201697 c 0,2.310937 -0.0473,4.199157 -0.10503,4.196037 -0.0578,-0.003 -1.39708,-1.89318 -2.97621,-4.200167 l -2.87116,-4.194527 -0.52522,-0.002 -0.5252,-0.002 v 5.042037 5.042047 h 0.48814 0.48815 z m 12.29202,-0.42627 v -4.621877 h 1.75072 1.75069 v -0.42016 -0.42018 h -3.99161 -3.99161 v 0.42018 0.42016 h 1.75071 1.7507 v 4.621877 4.621857 h 0.4902 0.4902 z m 39.07081,3.077907 0.59419,-1.54393 2.32381,0.0383 2.32381,0.0383 0.58783,1.47058 0.58782,1.47061 0.51762,0.0442 c 0.44631,0.0381 0.50634,0.009 0.43576,-0.2101 -0.045,-0.13985 -0.92349,-2.39715 -1.95215,-5.016207 l -1.87027,-4.761917 -0.56388,-0.0422 -0.56387,-0.0422 -1.97837,4.944197 c -1.0881,2.719317 -1.97826,4.991467 -1.97816,5.049227 1.2e-4,0.0578 0.21205,0.10506 0.47095,0.10506 0.46986,0 0.47182,-0.003 1.06491,-1.54395 z m 0.98538,-2.47311 c 0,-0.294387 1.89323,-4.929424 1.97767,-4.841754 0.13744,0.14273 1.8038,4.541957 1.80384,4.762164 10e-6,0.13141 -0.47149,0.17507 -1.89075,0.17507 -1.03991,0 -1.89076,-0.043 -1.89076,-0.0955 z m 9.80397,-0.604797 v -4.621877 h 1.75071 1.7507 v -0.42016 -0.42018 h -3.99162 -3.99162 v 0.42018 0.42016 h 1.75071 1.75072 v 4.621877 4.621857 h 0.49019 0.49021 z m -79.97704,-9.745557 c 1.3259,-0.39375 1.8462,-1.08177 4.75826,-6.29198 3.34975,-5.993331 20.76975,-36.51848 21.96149,-38.48321 0.5035,-0.83011 0.931,-1.49187 0.94997,-1.4706 0.019,0.0213 3.6393,6.215179 8.04515,13.764239 4.40586,7.54906 8.27329,14.06783 8.59431,14.4862 1.7861,2.32768 2.52226,2.80597 4.49471,2.92014 l 1.24996,0.0723 -0.47966,-0.84427 c -1.81899,-3.2018 -21.92245,-37.565179 -21.97832,-37.568089 -0.0952,-0.005 -30.49802,53.27206 -30.44081,53.34361 0.0719,0.0899 1.05023,0.25955 1.59874,0.27723 0.27488,0.009 0.83567,-0.0838 1.2462,-0.20556 z m 83.66568,-0.0529 c 0.10687,-0.10389 -30.13069,-53.34674 -30.30465,-53.36099 -0.0414,-0.003 -2.64162,4.38986 -5.77828,9.76278 l -5.70303,9.768959 0.52617,0.24143 c 0.73039,0.33513 1.73833,0.31486 2.45221,-0.0493 1.42973,-0.7294 2.57251,-2.32459 6.04277,-8.435019 l 2.36656,-4.16703 0.5596,0.88282 c 0.77693,1.2257 16.9174,29.459069 21.28228,37.22752 2.00864,3.57495 3.83909,6.66656 4.16948,7.04221 0.6043,0.68708 1.15035,1.0449 1.88872,1.23761 0.48852,0.12749 2.32593,0.0165 2.49817,-0.15095 z"
         style="fill:#000000;fill-opacity:1;stroke-width:0.14005661" />
    </g>
  </g>
</svg>
